<?xml version="1.0" encoding="utf-8"?>
<!-- Generator: Adobe Illustrator 22.0.0, SVG Export Plug-In . SVG Version: 6.00 Build 0)  -->
<svg version="1.1" id="Layer_2_1_" xmlns="http://www.w3.org/2000/svg" xmlns:xlink="http://www.w3.org/1999/xlink" x="0px" y="0px"
	 viewBox="0 0 334.8 95.2" style="enable-background:new 0 0 334.8 95.2;" xml:space="preserve">
<style type="text/css">
	.st0{fill:#7600FF;}
	.st1{fill:#3D3B3B;}
	.st2{fill:#9564F3;}
	.st3{fill:#B4B4B5;}
</style>
<g>
	<g>
		<path class="st0" d="M32.4,71.3c-5.6,0-10-2-13-6s-4.5-9.7-4.5-17.1c0-7.2,1.4-13,4.2-17.3s6.7-6.5,11.8-6.5c4.6,0,8,1.8,10.3,5.5
			s3.5,8.9,3.5,15.7v5H24.3c0.1,2.1,0.4,3.8,0.9,5.1c0.5,1.4,1.2,2.5,2,3.3s1.7,1.4,2.8,1.8c1.1,0.4,2.2,0.5,3.5,0.5
			c1.1,0,2.1-0.2,3.2-0.5c1-0.4,2-0.8,2.9-1.4c0.8-0.5,1.5-1,2.1-1.6s1.2-1.1,1.6-1.5h1v11.4c-0.8,0.4-1.5,0.9-2.1,1.2
			c-0.6,0.4-1.5,0.8-2.6,1.2c-1,0.4-2.1,0.7-3.1,0.9C35.3,71.2,34,71.3,32.4,71.3z M35.5,42.3c-0.1-2.9-0.5-5.1-1.4-6.7
			c-0.9-1.5-2.2-2.3-4-2.3s-3.2,0.8-4.3,2.4c-1,1.6-1.6,3.8-1.7,6.5L35.5,42.3L35.5,42.3z"/>
		<path class="st1" d="M63.5,71.3c-2.5,0-4.7-0.5-6.8-1.4s-3.8-2.3-5.3-4.3c-1.5-1.9-2.7-4.3-3.5-7.2s-1.3-6.3-1.3-10.3
			c0-4.2,0.5-7.8,1.4-10.8s2.1-5.4,3.7-7.3c1.5-1.8,3.2-3.2,5.3-4.1c2-0.9,4.1-1.3,6.3-1.3c1.7,0,3.3,0.3,5,0.8
			c1.7,0.6,3.3,1.5,5,2.7V40H72c-0.4-0.5-0.8-1.1-1.4-1.7c-0.5-0.6-1.1-1.2-1.8-1.7c-0.7-0.6-1.4-1-2.3-1.4s-1.8-0.6-2.9-0.6
			c-2.4,0-4.2,1.2-5.5,3.7s-2,5.8-2,9.9c0,4.4,0.7,7.8,2.1,9.9c1.4,2.2,3.2,3.3,5.6,3.3c1.2,0,2.2-0.2,3.1-0.6
			c0.9-0.4,1.7-0.9,2.3-1.4c0.6-0.6,1.2-1.1,1.6-1.7c0.4-0.6,0.8-1.1,1.1-1.6h1.2v11.8c-0.5,0.3-1.2,0.7-1.9,1.2
			c-0.7,0.4-1.4,0.8-2.1,1.1c-0.9,0.4-1.8,0.7-2.5,0.8C65.8,71.2,64.8,71.3,63.5,71.3z"/>
		<path class="st1" d="M105.6,48c0,7.3-1.3,13-4,17.2s-6.5,6.3-11.4,6.3s-8.7-2.1-11.4-6.3c-2.7-4.2-4.1-9.9-4.1-17.2
			c0-7.4,1.4-13.1,4.1-17.3c2.7-4.2,6.5-6.3,11.4-6.3s8.7,2.1,11.4,6.3S105.6,40.7,105.6,48z M96.1,48.1c0-2.6-0.1-4.8-0.4-6.6
			c-0.3-1.7-0.7-3.1-1.2-4.2c-0.6-1.1-1.2-1.9-1.9-2.3s-1.5-0.7-2.4-0.7c-0.8,0-1.6,0.2-2.3,0.6S86.6,36,86,37.1
			c-0.5,1-1,2.4-1.3,4.2s-0.5,4-0.5,6.7s0.2,4.9,0.5,6.6s0.7,3,1.2,4s1.1,1.8,1.9,2.2c0.7,0.5,1.6,0.7,2.5,0.7
			c0.7,0,1.5-0.2,2.3-0.7s1.4-1.2,1.9-2.1c0.6-1.1,1-2.5,1.3-4.1C95.9,53.1,96.1,50.9,96.1,48.1z"/>
		<path class="st1" d="M137.9,70.1h-9.4v-22c0-1.8,0-3.6-0.1-5.3c-0.1-1.8-0.3-3.1-0.5-3.9c-0.3-1-0.8-1.7-1.4-2.2
			c-0.6-0.4-1.4-0.7-2.4-0.7c-0.8,0-1.5,0.2-2.3,0.6c-0.8,0.4-1.6,1.1-2.5,2V70H110V25.8h9.3v4.9c1.5-1.9,3-3.4,4.5-4.5
			c1.4-1.1,3.1-1.6,4.8-1.6c3.1,0,5.4,1.4,7,4.3s2.4,7,2.4,12.4L137.9,70.1L137.9,70.1z"/>
		<path class="st1" d="M163.2,19.1h-0.7c-0.4-0.2-0.9-0.4-1.7-0.6s-1.5-0.4-2.1-0.4c-1.9,0-3.2,0.5-3.9,1.5s-1,2.9-1,5.8v0.4h7.4
			v9.6h-7.1v34.7h-9.3V35.4h-3.7v-9.6h3.7v-1.2c0-5.4,1-9.5,2.9-12.2s4.8-4.1,8.7-4.1c1.4,0,2.6,0.1,3.8,0.2c1.2,0.1,2.2,0.3,3,0.6
			L163.2,19.1L163.2,19.1z"/>
		<path class="st1" d="M173.9,19.5H164V8.7h9.9V19.5z M173.6,70.1h-9.3V25.8h9.3V70.1z"/>
		<path class="st1" d="M207.2,65c0,4.1-0.4,7.6-1.2,10.5s-1.9,5.1-3.3,6.7c-1.4,1.6-3,2.8-5,3.5s-4.1,1.1-6.4,1.1
			c-2,0-3.9-0.2-5.7-0.6s-3.3-0.8-4.7-1.3V73.8h1.1c0.5,0.3,1,0.6,1.6,0.9s1.3,0.6,1.9,0.9c0.8,0.3,1.5,0.5,2.2,0.7s1.5,0.3,2.2,0.3
			c1.6,0,2.9-0.2,4-0.7s1.9-1.2,2.4-2.1s0.9-2,1.1-3.3c0.2-1.2,0.3-2.8,0.3-4.7V65c-1,1.4-2.3,2.5-3.6,3.3c-1.4,0.8-2.8,1.2-4.3,1.2
			c-3.9,0-6.9-1.9-9-5.6s-3.2-9.4-3.2-17c0-3.5,0.3-6.6,1-9.3c0.6-2.8,1.5-5.1,2.7-7.1c1.1-1.9,2.4-3.3,4-4.3c1.6-1,3.2-1.5,4.9-1.5
			c1.5,0,2.9,0.3,4.1,0.9c1.2,0.6,2.3,1.4,3.3,2.3l0.3-2h9V65H207.2z M197.9,56.1v-20c-0.5-0.3-1-0.6-1.7-0.8s-1.4-0.3-2-0.3
			c-2.2,0-3.9,1.1-5,3.2c-1.1,2.1-1.7,5.1-1.7,9c0,1.9,0.1,3.5,0.3,4.9c0.2,1.3,0.5,2.5,0.9,3.5s1,1.8,1.7,2.3s1.6,0.8,2.8,0.8
			c0.8,0,1.7-0.2,2.5-0.6C196.4,57.5,197.2,56.9,197.9,56.1z"/>
		<path class="st1" d="M241.5,70.1h-9.3v-4.9c-1.6,2-3.1,3.5-4.5,4.6c-1.4,1-3,1.6-4.8,1.6c-3,0-5.3-1.4-6.9-4.2
			c-1.7-2.8-2.5-6.9-2.5-12.5V25.8h9.4v22c0,2.3,0,4.2,0.1,5.6c0.1,1.4,0.3,2.7,0.6,3.7c0.3,0.9,0.7,1.6,1.3,2.1s1.4,0.7,2.5,0.7
			c0.7,0,1.4-0.2,2.3-0.7c0.9-0.5,1.7-1.1,2.5-1.9V25.8h9.3L241.5,70.1L241.5,70.1z"/>
		<path class="st1" d="M268,38.9h-0.8c-0.4-0.2-0.9-0.3-1.5-0.4c-0.7-0.1-1.4-0.1-2.2-0.1c-1,0-2,0.2-3.1,0.6
			c-1.1,0.4-2.1,0.9-3.1,1.5v29.7H248V25.8h9.3v6.4c0.4-0.6,1-1.3,1.8-2.2c0.8-0.9,1.4-1.6,2.1-2.1c0.7-0.6,1.5-1.1,2.4-1.6
			s1.7-0.7,2.5-0.7c0.3,0,0.6,0,1,0s0.7,0.1,1,0.1L268,38.9L268,38.9z"/>
		<path class="st1" d="M286.2,71.3c-5.6,0-10-2-13-6s-4.5-9.7-4.5-17.1c0-7.2,1.4-13,4.2-17.3c2.8-4.3,6.7-6.5,11.8-6.5
			c4.6,0,8,1.8,10.3,5.5s3.5,8.9,3.5,15.7v5H278c0.1,2.1,0.4,3.8,0.9,5.1s1.2,2.5,2,3.3s1.7,1.4,2.8,1.8c1.1,0.4,2.2,0.5,3.5,0.5
			c1.1,0,2.1-0.2,3.2-0.5c1-0.4,2-0.8,2.9-1.4c0.8-0.5,1.5-1,2.1-1.6s1.2-1.1,1.6-1.5h1v11.4c-0.8,0.4-1.5,0.9-2.1,1.2
			c-0.6,0.4-1.5,0.8-2.6,1.2c-1,0.4-2.1,0.7-3.1,0.9C289,71.2,287.7,71.3,286.2,71.3z M289.3,42.3c-0.1-2.9-0.5-5.1-1.4-6.7
			c-0.9-1.5-2.2-2.3-4-2.3s-3.2,0.8-4.3,2.4c-1,1.6-1.6,3.8-1.7,6.5L289.3,42.3L289.3,42.3z"/>
	</g>
	<g>
		<path class="st2" d="M316.4,70.6c-4.2,0-7.7-3.4-7.7-7.7s3.4-7.7,7.7-7.7s7.7,3.4,7.7,7.7S320.6,70.6,316.4,70.6z M316.4,60.2
			c-1.5,0-2.7,1.2-2.7,2.7c0,1.5,1.2,2.7,2.7,2.7s2.7-1.2,2.7-2.7C319.1,61.4,317.9,60.2,316.4,60.2z"/>
	</g>
	<g>
		<path class="st3" d="M321.9,47.6c0,0.6-0.1,1.2-0.3,1.7c-0.2,0.5-0.6,1-1,1.3c-0.5,0.4-1,0.7-1.7,0.9s-1.5,0.3-2.4,0.3
			c-1,0-1.8-0.1-2.5-0.3s-1.3-0.5-1.7-0.9c-0.4-0.4-0.8-0.8-1-1.3s-0.3-1-0.3-1.6c0-0.4,0.1-0.8,0.2-1.2s0.3-0.8,0.6-1.2h2.8v0.3
			c-0.1,0.1-0.3,0.2-0.4,0.3s-0.3,0.3-0.4,0.4c-0.1,0.2-0.2,0.4-0.3,0.6s-0.1,0.4-0.1,0.7c0,0.6,0.3,1,0.9,1.4
			c0.6,0.3,1.4,0.5,2.3,0.5c1,0,1.8-0.2,2.3-0.5s0.8-0.8,0.8-1.4c0-0.3,0-0.5-0.1-0.8s-0.2-0.4-0.3-0.6c-0.1-0.2-0.3-0.3-0.4-0.4
			c-0.1-0.1-0.3-0.2-0.4-0.3v-0.3h2.8c0.1,0.1,0.2,0.3,0.3,0.5s0.2,0.4,0.3,0.5c0.1,0.2,0.2,0.4,0.2,0.6
			C321.8,47,321.9,47.3,321.9,47.6z"/>
		<path class="st3" d="M316.4,37.1c1.7,0,3.1,0.3,4,1c1,0.7,1.5,1.6,1.5,2.8s-0.5,2.2-1.5,2.8c-1,0.7-2.3,1-4,1s-3.1-0.3-4.1-1
			s-1.5-1.6-1.5-2.8s0.5-2.2,1.5-2.8S314.7,37.1,316.4,37.1z M316.4,39.5c-0.6,0-1.1,0-1.5,0.1s-0.7,0.2-1,0.3s-0.4,0.3-0.5,0.5
			s-0.2,0.4-0.2,0.6c0,0.2,0,0.4,0.1,0.6c0.1,0.2,0.3,0.3,0.5,0.5c0.2,0.1,0.6,0.2,1,0.3s1,0.1,1.6,0.1s1.2,0,1.5-0.1
			c0.4-0.1,0.7-0.2,0.9-0.3c0.2-0.1,0.4-0.3,0.5-0.5s0.2-0.4,0.2-0.6c0-0.2-0.1-0.4-0.2-0.6c-0.1-0.2-0.3-0.3-0.5-0.5
			c-0.3-0.1-0.6-0.2-1-0.3C317.6,39.5,317.1,39.5,316.4,39.5z"/>
		<path class="st3" d="M321.6,27.2h-5.2c-0.5,0-0.9,0-1.3,0s-0.6,0.1-0.9,0.1c-0.2,0.1-0.4,0.2-0.5,0.3c-0.1,0.1-0.2,0.3-0.2,0.6
			c0,0.2,0.1,0.4,0.2,0.5c0.1,0.2,0.3,0.4,0.5,0.6h7.4v2.3h-5.2c-0.5,0-0.9,0-1.3,0s-0.6,0.1-0.9,0.1c-0.2,0.1-0.4,0.2-0.5,0.3
			c-0.1,0.1-0.2,0.3-0.2,0.6c0,0.2,0.1,0.4,0.2,0.6s0.3,0.4,0.4,0.5h7.4V36h-10.4v-2.3h1.2c-0.5-0.4-0.8-0.7-1.1-1.1
			s-0.4-0.7-0.4-1.1c0-0.5,0.2-0.9,0.5-1.2c0.3-0.3,0.8-0.6,1.4-0.8c-0.6-0.4-1-0.9-1.3-1.3s-0.5-0.8-0.5-1.2c0-0.3,0.1-0.7,0.2-0.9
			c0.2-0.3,0.4-0.5,0.7-0.7c0.3-0.2,0.7-0.4,1.2-0.5s1.1-0.2,1.8-0.2h6.8L321.6,27.2L321.6,27.2z"/>
	</g>
</g>
</svg>
