<?xml version="1.0" encoding="utf-8"?>
<!-- Generator: Adobe Illustrator 22.0.0, SVG Export Plug-In . SVG Version: 6.00 Build 0)  -->
<svg version="1.1" id="Layer_1" xmlns="http://www.w3.org/2000/svg" xmlns:xlink="http://www.w3.org/1999/xlink" x="0px" y="0px"
	 viewBox="0 0 100 93.3" style="enable-background:new 0 0 100 93.3;" xml:space="preserve">
<style type="text/css">
	.st0{fill:#FFFFFF;}
</style>
<path class="st0" d="M85.1,25.3H14.9c-5.5,0-9.9-4-9.9-8.8s4.4-8.8,9.9-8.8h70.2c5.5,0,9.9,4,9.9,8.8S90.6,25.3,85.1,25.3z
	 M14.9,10.2c-4,0-7.3,2.8-7.3,6.3s3.3,6.3,7.3,6.3h70.2c4,0,7.3-2.8,7.3-6.3s-3.3-6.3-7.3-6.3H14.9z"/>
<path class="st0" d="M85.1,85.7H14.9c-5.5,0-9.9-4-9.9-8.8S9.4,68,14.9,68h70.2c5.5,0,9.9,4,9.9,8.8S90.6,85.7,85.1,85.7z
	 M14.9,70.6c-4,0-7.3,2.8-7.3,6.3s3.3,6.3,7.3,6.3h70.2c4,0,7.3-2.8,7.3-6.3s-3.3-6.3-7.3-6.3H14.9z"/>
<path class="st0" d="M85.1,55.5H14.9c-5.5,0-9.9-4-9.9-8.8s4.4-8.8,9.9-8.8h70.2c5.5,0,9.9,4,9.9,8.8S90.6,55.5,85.1,55.5z
	 M14.9,40.4c-4,0-7.3,2.8-7.3,6.3s3.3,6.3,7.3,6.3h70.2c4,0,7.3-2.8,7.3-6.3s-3.3-6.3-7.3-6.3H14.9z"/>
</svg>
